<svg width="10" height="10" viewBox="0 0 10 10" fill="none" xmlns="http://www.w3.org/2000/svg">
<path d="M9.18359 4.71641L4.75625 0.873828C4.72227 0.844531 4.67891 0.828125 4.6332 0.828125H3.59609C3.50938 0.828125 3.46953 0.935937 3.53516 0.992188L7.63906 4.55469H0.78125C0.729687 4.55469 0.6875 4.59687 0.6875 4.64844V5.35156C0.6875 5.40313 0.729687 5.44531 0.78125 5.44531H7.63789L3.53398 9.00781C3.46836 9.06523 3.5082 9.17188 3.59492 9.17188H4.66719C4.68945 9.17188 4.71172 9.16367 4.72812 9.14844L9.18359 5.28359C9.22416 5.24832 9.25669 5.20474 9.27898 5.15582C9.30127 5.1069 9.31281 5.05376 9.31281 5C9.31281 4.94624 9.30127 4.8931 9.27898 4.84418C9.25669 4.79526 9.22416 4.75168 9.18359 4.71641V4.71641Z" fill="#219653"/>
</svg>
