<svg width="152" height="58" viewBox="0 0 152 58" fill="none" xmlns="http://www.w3.org/2000/svg">
<mask id="mask0_46_32" style="mask-type:alpha" maskUnits="userSpaceOnUse" x="-408" y="0" width="650" height="58">
<rect x="-408" width="650" height="58" fill="#D9D9D9"/>
</mask>
<g mask="url(#mask0_46_32)">
<mask id="mask1_46_32" style="mask-type:luminance" maskUnits="userSpaceOnUse" x="0" y="0" width="152" height="105">
<path d="M151.242 0H0V105H151.242V0Z" fill="white"/>
</mask>
<g mask="url(#mask1_46_32)">
<path d="M142.899 86.6378L141.753 86.4615C141.753 86.4615 139.902 89.8401 135.025 89.8401C133.145 89.8401 131.206 88.9881 129.619 87.5192V79.1168C129.619 69.0693 122.862 65.7789 117.486 63.1348C112.286 60.6082 108.202 58.6104 108.202 52.0002H108.173C108.173 47.6521 106.322 44.2442 105.969 43.5978L104.383 40.278C103.619 38.1921 103.237 35.9593 103.237 33.6972C103.237 31.4937 103.972 28.7909 105.353 25.853L105.382 25.7942C107.262 21.4462 110.494 17.7151 111.786 17.7151C112.903 17.7151 113.637 18.7433 114.93 20.9761C116.399 23.4733 118.397 26.8813 122.745 26.8813C128.004 26.8813 131.529 20.0654 131.529 13.7195C131.529 10.0178 130.295 6.66862 128.092 4.25956C125.418 1.40981 121.423 -0.000376856 116.487 -0.000376856C105.676 0.029002 99.7118 5.75788 97.4496 8.57825C95.3637 7.75564 91.4563 6.55111 86.1094 6.55111C80.7918 6.55111 76.855 7.72626 74.7985 8.57825C72.5364 5.75788 66.5724 -0.0297557 55.7317 -0.000376856C50.796 -0.000376856 46.8005 1.52732 44.1564 4.37707C41.9824 6.78614 40.7778 10.1353 40.7778 13.8371C40.7778 13.8958 40.7778 13.984 40.7778 14.0721C39.9846 13.7489 39.1032 13.5726 38.1337 13.5726C35.1959 13.5726 31.8173 18.5964 30.4659 20.7705C29.2026 22.9151 26.1472 28.4971 26.1472 33.8147C26.1472 43.2453 30.5834 48.2397 33.815 51.8827C35.6365 53.9979 37.1349 55.6432 37.1349 57.4059C37.1349 58.4341 34.6377 59.8443 32.4342 61.1076C27.763 63.7223 21.3878 67.3359 21.3878 75.1801V83.4943C21.3878 87.3135 18.2736 90.4865 14.425 90.4865C11.4284 90.4865 9.78315 88.1068 9.7244 88.0186L9.0193 86.9316L7.75601 87.1373C5.05316 87.5486 0 89.6932 0 94.7464C0 100.798 7.96167 105.029 15.0713 105C20.3889 105 24.1788 103.619 25.9709 102.796C27.146 103.472 29.2319 104.324 31.7291 104.324H119.866C122.363 104.324 124.39 103.384 125.595 102.708C127.299 103.589 130.824 104.853 136.582 104.853C144.661 104.853 151.242 100.387 151.242 94.9227C151.242 89.2819 145.748 87.0198 142.899 86.6378ZM47.1237 7.05055C49.0039 4.99403 51.9124 3.96577 55.761 3.96577C67.3657 3.93639 72.2426 11.7512 72.4482 12.0743L73.4471 13.7489L75.1511 12.8382C75.1805 12.8088 79.3522 10.5466 86.1388 10.5466C92.9547 10.5466 97.1264 12.7794 97.1558 12.8088L98.8598 13.7489L99.8587 12.0743C99.9174 11.9862 104.794 3.99515 116.516 3.96577C120.365 3.96577 123.274 4.90589 125.183 6.96241C127.152 9.07769 127.563 11.8393 127.563 13.7489C127.563 18.6846 124.919 23.0033 122.745 23.0033C120.747 23.0033 119.778 21.3874 118.367 18.9784C117.016 16.6574 115.312 13.7489 111.757 13.7783C106.469 13.7783 102.062 23.5027 101.768 24.2078C100.623 26.6169 99.2711 30.2011 99.2711 33.7265C99.2711 36.4881 99.7705 39.1616 100.711 41.747L102.415 45.4193C102.415 45.4193 104.177 48.2984 104.177 51.9708C103.766 56.0838 100.299 59.3743 96.0394 59.3743C91.5445 59.3743 87.8427 55.6725 87.8427 51.1776V48.2984C90.9863 47.5346 93.3072 44.7436 93.3072 41.3944C93.3072 41.3944 90.3693 39.9255 86.1681 39.9255C81.9963 39.9255 79.0585 41.3944 79.0585 41.3944C79.0585 44.7436 81.4088 47.564 84.5523 48.2984V51.1776C84.5523 55.6725 80.8799 59.3743 76.385 59.3743C72.1251 59.3743 68.629 56.1426 68.2177 52.0296C68.247 48.4747 69.8629 45.6837 69.8629 45.6543L71.5962 41.982L71.6844 41.8057C72.6245 39.2204 73.0946 36.5175 73.0946 33.7853C73.0946 28.4677 69.9804 22.9151 68.6583 20.7705C67.3363 18.5964 63.9284 13.602 60.9611 13.602C60.8142 13.602 60.5204 13.602 60.5204 13.602C57.23 13.602 55.526 16.2167 54.2333 18.5083C53.6164 19.3897 53.0876 20.3004 52.6469 21.1524C51.7949 22.3569 50.9429 23.062 49.6209 23.062C47.4468 23.062 44.7733 18.8608 44.7733 13.9252C44.744 11.9568 45.1553 9.1952 47.1237 7.05055ZM90.1343 60.902C89.723 64.0455 86.5207 64.163 86.1094 64.163C85.4924 64.163 82.5839 63.9867 82.1139 60.9607L82.9071 60.5788C84.2585 59.6681 85.3749 58.4635 86.1975 57.0827C87.0201 58.4635 88.1365 59.6387 89.4292 60.5788L90.1343 60.902ZM66.1611 100.211H58.1113C58.6108 98.1837 59.2571 93.5125 55.7317 90.8096C55.6435 90.7509 55.5554 90.6334 55.4673 90.5452L58.6108 77.8829C58.8458 77.0016 58.2876 76.0908 57.4063 75.8852C56.5249 75.6501 55.6141 76.2083 55.3791 77.0897L53.2932 85.4333L51.2073 77.0897C51.0017 76.2083 50.0909 75.6501 49.2096 75.8852C48.3282 76.1202 47.77 77.0016 48.005 77.9123L50.6491 88.1949C50.7373 88.5475 51.5011 91.7204 53.7339 93.4243C56.2899 95.334 54.7034 100.181 54.7034 100.181H46.5655C46.8592 98.4481 47.2412 94.4232 45.3609 91.8673C44.7146 90.9859 43.8332 90.3396 42.8344 89.987L39.6027 77.1191C39.3676 76.2377 38.4863 75.6795 37.5755 75.9146C36.6942 76.1496 36.136 77.0309 36.371 77.9417L39.2501 89.3994C36.8411 88.9 36.1654 88.1068 36.0185 87.8424C35.8422 87.5486 35.8716 87.2842 35.9303 87.1079L36.0772 86.7553C36.4004 85.9327 35.9597 84.9632 35.1077 84.6401C34.2851 84.3169 33.3156 84.7576 32.9924 85.6096C32.7868 86.0502 32.1698 87.6367 33.1393 89.3701C34.2557 91.4266 36.8411 92.6017 41.1598 93.013C41.8648 93.0718 42.3643 93.3362 42.7168 93.8356C43.8626 95.4221 43.4807 98.9769 43.2163 100.211H31.5235C29.0263 100.211 27.3223 98.8888 27.3223 98.8888L26.2353 98.0662L25.0895 98.7713C25.0602 98.8007 21.3584 101.004 15.1595 101.033C9.54812 101.033 4.05428 97.8899 4.05428 94.717C4.05428 92.7192 6.14018 91.7204 7.43285 91.2797C8.66676 92.543 11.0171 94.4232 14.5131 94.4232C20.5358 94.4232 25.4715 89.4876 25.4715 83.4355V75.1213C25.4715 69.6275 30.0252 67.0421 34.4908 64.5156C37.9575 62.5766 41.2479 60.7257 41.2479 57.3765C41.2479 54.1155 39.1326 51.7358 36.8998 49.2386C35.9009 48.1222 34.9021 46.947 33.9619 45.6543L38.4569 44.7436C39.0739 44.6261 39.4852 44.0091 39.3676 43.3628C39.2501 42.7458 38.6332 42.3345 37.9868 42.4521L32.6105 43.5097C32.0229 42.4521 31.4941 41.3063 31.1122 39.9842L38.0456 41.0712C38.1044 41.0712 38.1631 41.0712 38.2219 41.0712C38.7801 41.0712 39.2795 40.6599 39.3676 40.1017C39.4558 39.4554 39.0445 38.8678 38.3981 38.7797L30.554 37.5752C30.3483 36.4 30.2308 35.1367 30.2308 33.7853C30.2308 27.2044 36.5473 18.4202 38.4569 17.5388C40.1903 17.7738 43.0988 22.21 44.6558 26.2056L45.3316 27.9095L45.3903 27.8801V27.9095L47.1237 27.3807C48.8276 26.8519 50.6785 26.8519 52.3531 27.3807L54.1158 27.9095L54.7915 26.2056C56.378 22.21 59.2865 17.7738 60.9905 17.5388C62.9295 18.4495 69.2459 27.2044 69.2459 33.7559C69.2459 34.9898 69.1284 36.2237 68.8934 37.4576L61.7249 38.8091C61.108 38.9266 60.6967 39.5435 60.8142 40.1605C60.9023 40.7187 61.4018 41.1006 61.96 41.1006C62.0187 41.1006 62.1069 41.1006 62.1656 41.0712L68.2764 39.9255C68.2764 39.9255 68.1883 40.1899 68.1589 40.3368L66.7487 43.3334L62.195 42.4521C61.578 42.3345 60.9611 42.7458 60.8436 43.3628C60.7261 43.9798 61.1374 44.5967 61.7543 44.7142L65.7205 45.4781C65.1035 47.0058 64.3984 49.3561 64.3984 52.0589C64.3984 54.3211 65.3092 56.0545 66.2493 57.8759C67.4244 60.1381 68.629 62.4884 68.629 66.6015C68.629 68.6286 67.2775 73.2705 66.073 77.4129C63.1939 87.0491 62.0775 91.3972 64.986 92.778C68.1883 94.3645 66.1611 100.152 66.1611 100.211ZM136.582 100.887C129.737 100.887 126.77 98.7713 126.77 98.7713L125.536 97.8312L124.302 98.8007C124.302 98.83 122.451 100.211 119.866 100.211H105.529C105.499 100.181 102.708 96.5679 104.001 93.9532C105.823 90.222 109.377 89.4582 114.107 89.4582C116.252 89.4582 117.222 88.4887 117.662 87.6661C118.896 85.3452 116.84 81.996 116.193 81.0265C115.664 80.2626 114.636 80.0863 113.902 80.5858C113.138 81.1146 112.932 82.1429 113.461 82.9067C114.225 84.0525 114.842 85.5802 114.754 86.109C114.666 86.1384 114.489 86.1971 114.137 86.1971C112.962 86.1971 111.346 86.1971 109.642 86.4909L108.672 82.6423C108.467 81.7316 107.556 81.2027 106.645 81.4378C105.764 81.6728 105.206 82.5542 105.441 83.4649L106.44 87.4017C104.354 88.283 102.385 89.8401 101.093 92.543C99.7118 95.334 100.681 98.3306 101.68 100.27H88.7535C88.254 97.2436 88.1071 92.8661 90.0755 92.0729C90.7219 91.8085 91.3976 91.6616 92.0733 91.5147C93.4247 91.2209 94.923 90.8684 95.7456 89.3994C96.4801 88.0774 96.392 86.3147 95.4519 83.4355L93.8948 77.1485C93.6891 76.2671 92.7784 75.7089 91.897 75.9439C91.0156 76.179 90.4575 77.0603 90.6925 77.9417L92.2789 84.2875C92.2789 84.3169 92.3083 84.3169 92.3083 84.3463C92.3083 84.3757 92.3083 84.405 92.3377 84.4344C93.2484 87.1079 92.9547 87.7248 92.9253 87.7836C92.8371 87.9599 91.8676 88.1655 91.3682 88.283C90.6337 88.4593 89.7817 88.6356 88.871 89.0175C87.6958 89.4876 86.8732 90.3102 86.2857 91.3091C85.7275 90.3102 84.9048 89.4876 83.7297 89.0175C82.819 88.665 81.967 88.4593 81.2325 88.3124C80.7331 88.1949 79.7636 87.9893 79.6754 87.813C79.646 87.7542 79.3522 87.1373 80.263 84.4344C80.263 84.405 80.263 84.3757 80.2924 84.3463C80.2924 84.3463 80.2924 84.3169 80.3217 84.3169L81.9082 77.9711C82.1139 77.0897 81.585 76.179 80.7037 75.9439C79.8223 75.7089 78.9116 76.2671 78.7059 77.1485L77.1488 83.4355C76.2381 86.344 76.15 88.1068 76.8844 89.3994C77.707 90.839 79.2347 91.1915 80.5862 91.4853C81.2325 91.6322 81.9082 91.7791 82.5839 92.0435C84.5523 92.8368 84.4348 97.2142 83.9647 100.24H70.2154C71.0674 96.9498 71.1555 91.8966 67.1013 89.517C67.0131 87.6955 68.5996 82.2604 69.6866 78.5293C71.0968 73.7405 72.4482 69.2456 72.4482 66.6308C72.4482 64.7506 72.2132 63.1641 71.89 61.754C73.2708 62.3415 74.7985 62.6647 76.385 62.6647C77.237 62.6647 78.0596 62.5472 78.8822 62.3709C79.646 64.9856 81.7907 67.6885 86.1388 67.6885C90.4868 67.6885 92.6609 64.9856 93.3953 62.3709C94.2473 62.5766 95.1287 62.6647 96.0394 62.6647C99.8587 62.6647 103.208 60.7845 105.294 57.9347C107.292 62.6353 111.698 64.78 115.723 66.7484C121.041 69.3631 125.653 71.5665 125.653 79.1756L125.683 89.1644L126.212 89.752C128.621 92.3961 131.852 93.8944 135.055 93.8944C139.197 93.8944 141.929 92.0142 143.281 90.839C144.691 91.2503 147.276 92.3373 147.305 94.9814C147.276 98.0074 142.194 100.887 136.582 100.887Z" fill="#001952"/>
<path d="M78.6767 36.8997C80.2338 36.8997 81.4971 35.6364 81.4971 34.0793C81.4971 32.5516 80.2338 31.2883 78.6767 31.2883C77.1197 31.2883 75.8857 32.5516 75.8857 34.0793C75.8857 35.6658 77.149 36.8997 78.6767 36.8997Z" fill="#001952"/>
<path d="M93.6597 36.8997C95.1874 36.8997 96.4507 35.6364 96.4507 34.0793C96.4507 32.5516 95.1874 31.2883 93.6597 31.2883C92.1026 31.2883 90.8393 32.5516 90.8687 34.1087C90.8393 35.6658 92.1026 36.9291 93.6597 36.8997Z" fill="#001952"/>
<path d="M45.273 34.0793C45.273 32.5516 44.0097 31.2883 42.482 31.2883C40.9249 31.2883 39.6616 32.5516 39.6616 34.0793C39.6616 35.6364 40.9249 36.8997 42.482 36.8997C44.0097 36.8997 45.273 35.6364 45.273 34.0793Z" fill="#001952"/>
<path d="M57.4356 31.2883C55.8785 31.2883 54.6152 32.5516 54.6152 34.0793C54.6152 35.6364 55.8785 36.8997 57.4356 36.8997C58.9927 36.8997 60.2266 35.6364 60.2266 34.0793C60.2266 32.5516 58.9927 31.2883 57.4356 31.2883Z" fill="#001952"/>
<path d="M58.4638 42.7755C58.4638 42.1585 57.935 41.6591 57.318 41.6591C56.7011 41.6591 56.1722 42.1585 56.1722 42.7755H56.1429C56.1429 43.4512 55.8785 44.0682 55.4084 44.5382C54.9383 45.0083 54.292 45.2727 53.6457 45.2727C52.2649 45.2727 51.1778 44.1563 51.1485 42.7461V41.7472C51.1485 41.6885 51.1191 41.6297 51.1191 41.5416C52.5587 41.0715 53.6457 39.6907 53.6457 38.0749C53.6457 38.0749 52.0886 37.311 50.0027 37.311C47.858 37.311 46.301 38.0749 46.301 38.0749C46.301 39.6907 47.388 41.0715 48.8569 41.5416C48.8569 41.6003 48.8275 41.6591 48.8275 41.7472V42.7461C48.8275 44.1269 47.7111 45.2727 46.301 45.2727C45.6252 45.2727 45.0083 45.0083 44.5382 44.5382C44.0682 44.0682 43.8038 43.4218 43.8038 42.7755C43.8038 42.1585 43.2749 41.6591 42.658 41.6591C42.041 41.6591 41.5122 42.1585 41.5122 42.7755C41.5122 42.7755 41.5122 42.7755 41.5122 42.8049C41.5122 44.0975 42.0116 45.2727 42.9224 46.1834C43.8038 47.0648 45.0083 47.5936 46.301 47.5936C47.7699 47.5936 49.0919 46.9179 49.9733 45.8897C50.8547 46.9179 52.1473 47.5936 53.6163 47.5936C54.909 47.5936 56.1135 47.0942 57.0242 46.1834C57.935 45.2727 58.4344 44.0682 58.4344 42.8049C58.4638 42.8049 58.4638 42.8049 58.4638 42.7755C58.4638 42.8049 58.4638 42.8049 58.4638 42.7755Z" fill="#001952"/>
</g>
</g>
</svg>
